G04 #@! TF.FileFunction,Soldermask,Top*
%FSLAX46Y46*%
G04 Gerber Fmt 4.6, Leading zero omitted, Abs format (unit mm)*
G04 Created by KiCad (PCBNEW 4.0.5) date 02/23/17 22:12:15*
%MOMM*%
%LPD*%
G01*
G04 APERTURE LIST*
%ADD10C,0.100000*%
%ADD11R,1.200000X1.150000*%
%ADD12R,1.150000X1.200000*%
%ADD13R,3.400000X3.400000*%
%ADD14O,2.398980X2.398980*%
%ADD15R,2.398980X2.398980*%
%ADD16O,3.414980X1.906220*%
%ADD17R,2.127200X2.432000*%
%ADD18O,2.127200X2.432000*%
%ADD19R,1.200100X1.200100*%
%ADD20R,0.900000X1.300000*%
%ADD21R,1.300000X0.900000*%
%ADD22R,1.670000X0.806400*%
%ADD23R,1.850000X1.200000*%
%ADD24R,0.900000X2.400000*%
%ADD25O,2.099260X3.900120*%
%ADD26C,4.199840*%
%ADD27O,1.009600X1.873200*%
%ADD28R,4.057600X2.432000*%
%ADD29R,1.416000X2.432000*%
G04 APERTURE END LIST*
D10*
D11*
X138700000Y-93650000D03*
X137200000Y-93650000D03*
D12*
X125500000Y-73250000D03*
X125500000Y-74750000D03*
X149000000Y-73250000D03*
X149000000Y-74750000D03*
D11*
X135050000Y-112700000D03*
X136550000Y-112700000D03*
X146750000Y-112800000D03*
X148250000Y-112800000D03*
X132550000Y-112700000D03*
X131050000Y-112700000D03*
X144250000Y-112800000D03*
X142750000Y-112800000D03*
D13*
X172500000Y-119000000D03*
X177500000Y-119000000D03*
X172500000Y-112000000D03*
X177500000Y-112000000D03*
X172500000Y-77000000D03*
X177500000Y-77000000D03*
X172500000Y-84000000D03*
X177500000Y-84000000D03*
X172500000Y-91000000D03*
X177500000Y-91000000D03*
X137400000Y-65500000D03*
X121600000Y-65500000D03*
X122700000Y-79000000D03*
X136300000Y-79000000D03*
X160900000Y-65500000D03*
X145100000Y-65500000D03*
X146200000Y-79000000D03*
X159800000Y-79000000D03*
D14*
X123000000Y-108140000D03*
D15*
X123000000Y-105600000D03*
D16*
X123000000Y-101550000D03*
X123000000Y-99010000D03*
X123000000Y-96470000D03*
X123000000Y-93930000D03*
X123000000Y-91390000D03*
X123000000Y-88850000D03*
D17*
X135200000Y-88800000D03*
D18*
X137740000Y-88800000D03*
X140280000Y-88800000D03*
X142820000Y-88800000D03*
X145360000Y-88800000D03*
X147900000Y-88800000D03*
D14*
X123000000Y-120220000D03*
D15*
X123000000Y-112600000D03*
D14*
X123000000Y-115140000D03*
X123000000Y-117680000D03*
D19*
X154219048Y-82574240D03*
X152319048Y-82574240D03*
X153269048Y-84573220D03*
X130650000Y-82499240D03*
X128750000Y-82499240D03*
X129700000Y-84498220D03*
X134620952Y-108625760D03*
X136520952Y-108625760D03*
X135570952Y-106626780D03*
D20*
X159750000Y-95200000D03*
X158250000Y-95200000D03*
X158250000Y-92000000D03*
X159750000Y-92000000D03*
X153750000Y-111400000D03*
X152250000Y-111400000D03*
X153350000Y-100000000D03*
X151850000Y-100000000D03*
X149350000Y-92200000D03*
X147850000Y-92200000D03*
D21*
X127800000Y-104050000D03*
X127800000Y-105550000D03*
D20*
X138250000Y-106600000D03*
X139750000Y-106600000D03*
X127050000Y-84500000D03*
X125550000Y-84500000D03*
X150550000Y-84600000D03*
X149050000Y-84600000D03*
X155850000Y-82600000D03*
X157350000Y-82600000D03*
X132350000Y-82500000D03*
X133850000Y-82500000D03*
X132950000Y-108600000D03*
X131450000Y-108600000D03*
D13*
X172500000Y-105000000D03*
X177500000Y-105000000D03*
X172500000Y-98000000D03*
X177500000Y-98000000D03*
D22*
X138783000Y-95729000D03*
X138783000Y-96364000D03*
X138783000Y-97024400D03*
X138783000Y-97684800D03*
X138783000Y-98319800D03*
X138783000Y-98980200D03*
X138783000Y-99640600D03*
X138783000Y-100275600D03*
X138783000Y-100936000D03*
X138783000Y-101571000D03*
X144117000Y-101571000D03*
X144117000Y-100936000D03*
X144117000Y-100275600D03*
X144117000Y-99640600D03*
X144117000Y-98980200D03*
X144117000Y-98319800D03*
X144117000Y-97684800D03*
X144117000Y-97024400D03*
X144117000Y-96364000D03*
X144117000Y-95729000D03*
D23*
X155575000Y-95235000D03*
X155575000Y-93965000D03*
X149225000Y-93965000D03*
X149225000Y-95235000D03*
D24*
X153450000Y-102600000D03*
X150910000Y-102600000D03*
X150910000Y-108600000D03*
X153450000Y-108600000D03*
D25*
X161000000Y-103400000D03*
X163540000Y-103400000D03*
X158460000Y-103400000D03*
D26*
X161000000Y-120164000D03*
D27*
X131405000Y-73206000D03*
X130135000Y-73206000D03*
X128865000Y-73206000D03*
X127595000Y-73206000D03*
X127595000Y-78794000D03*
X128865000Y-78794000D03*
X130135000Y-78794000D03*
X131405000Y-78794000D03*
X154905000Y-73206000D03*
X153635000Y-73206000D03*
X152365000Y-73206000D03*
X151095000Y-73206000D03*
X151095000Y-78794000D03*
X152365000Y-78794000D03*
X153635000Y-78794000D03*
X154905000Y-78794000D03*
D28*
X134800000Y-122002000D03*
D29*
X134800000Y-115398000D03*
X132514000Y-115398000D03*
X137086000Y-115398000D03*
D28*
X146500000Y-122102000D03*
D29*
X146500000Y-115498000D03*
X144214000Y-115498000D03*
X148786000Y-115498000D03*
M02*
