G04 #@! TF.FileFunction,Soldermask,Bot*
%FSLAX46Y46*%
G04 Gerber Fmt 4.6, Leading zero omitted, Abs format (unit mm)*
G04 Created by KiCad (PCBNEW 4.0.5) date 02/23/17 22:12:15*
%MOMM*%
%LPD*%
G01*
G04 APERTURE LIST*
%ADD10C,0.100000*%
%ADD11R,3.400000X3.400000*%
%ADD12O,2.398980X2.398980*%
%ADD13R,2.398980X2.398980*%
%ADD14O,3.414980X1.906220*%
%ADD15R,2.127200X2.432000*%
%ADD16O,2.127200X2.432000*%
%ADD17O,2.099260X3.900120*%
%ADD18C,4.199840*%
G04 APERTURE END LIST*
D10*
D11*
X172500000Y-119000000D03*
X177500000Y-119000000D03*
X172500000Y-112000000D03*
X177500000Y-112000000D03*
X172500000Y-77000000D03*
X177500000Y-77000000D03*
X172500000Y-84000000D03*
X177500000Y-84000000D03*
X172500000Y-91000000D03*
X177500000Y-91000000D03*
X137400000Y-65500000D03*
X121600000Y-65500000D03*
X122700000Y-79000000D03*
X136300000Y-79000000D03*
X160900000Y-65500000D03*
X145100000Y-65500000D03*
X146200000Y-79000000D03*
X159800000Y-79000000D03*
D12*
X123000000Y-108140000D03*
D13*
X123000000Y-105600000D03*
D14*
X123000000Y-101550000D03*
X123000000Y-99010000D03*
X123000000Y-96470000D03*
X123000000Y-93930000D03*
X123000000Y-91390000D03*
X123000000Y-88850000D03*
D15*
X135200000Y-88800000D03*
D16*
X137740000Y-88800000D03*
X140280000Y-88800000D03*
X142820000Y-88800000D03*
X145360000Y-88800000D03*
X147900000Y-88800000D03*
D12*
X123000000Y-120220000D03*
D13*
X123000000Y-112600000D03*
D12*
X123000000Y-115140000D03*
X123000000Y-117680000D03*
D11*
X172500000Y-105000000D03*
X177500000Y-105000000D03*
X172500000Y-98000000D03*
X177500000Y-98000000D03*
D17*
X161000000Y-103400000D03*
X163540000Y-103400000D03*
X158460000Y-103400000D03*
D18*
X161000000Y-120164000D03*
M02*
