M48
INCH,TZ
T1C0.016
T2C0.039
T3C0.039
T4C0.040
T5C0.043
T6C0.079
%
G90
G05
T1
X048819Y-034173
X049921Y-029449
X050394Y-030236
X050945Y-040945
X051417Y-039291
X052205Y-040866
X052362Y-029291
X052362Y-029764
X052362Y-039685
X053386Y-040945
X054016Y-037402
X055118Y-036929
X055118Y-044567
X055276Y-033465
X055354Y-036535
X055512Y-041969
X056142Y-039764
X056220Y-037795
X056535Y-036299
X056772Y-043858
X057323Y-040472
X057638Y-036535
X057638Y-040000
X057717Y-038189
X058583Y-035748
X059291Y-029370
X059370Y-034567
X059449Y-030394
X059449Y-031732
X060000Y-034488
X060236Y-030000
X060472Y-031732
X061496Y-029291
T2
X048425Y-034980
X048425Y-035980
X048425Y-036980
X048425Y-037980
X048425Y-038980
X048425Y-039980
T3
X062386Y-040709
X063386Y-040709
X064386Y-040709
T4
X053228Y-034961
X054228Y-034961
X055228Y-034961
X056228Y-034961
X057228Y-034961
X058228Y-034961
T5
X048425Y-041575
X048425Y-042575
X048425Y-044331
X048425Y-045331
X048425Y-046331
X048425Y-047331
T6
X047874Y-025787
X048307Y-031102
X053661Y-031102
X054094Y-025787
X057126Y-025787
X057559Y-031102
X062913Y-031102
X063346Y-025787
X067913Y-030315
X067913Y-033071
X067913Y-035827
X067913Y-038583
X067913Y-041339
X067913Y-044094
X067913Y-046850
X069882Y-030315
X069882Y-033071
X069882Y-035827
X069882Y-038583
X069882Y-041339
X069882Y-044094
X069882Y-046850
T0
M30
