G04 #@! TF.FileFunction,Copper,L2,Bot,Signal*
%FSLAX46Y46*%
G04 Gerber Fmt 4.6, Leading zero omitted, Abs format (unit mm)*
G04 Created by KiCad (PCBNEW 4.0.5) date 02/23/17 22:12:15*
%MOMM*%
%LPD*%
G01*
G04 APERTURE LIST*
%ADD10C,0.100000*%
%ADD11R,3.000000X3.000000*%
%ADD12O,1.998980X1.998980*%
%ADD13R,1.998980X1.998980*%
%ADD14O,3.014980X1.506220*%
%ADD15R,1.727200X2.032000*%
%ADD16O,1.727200X2.032000*%
%ADD17O,1.699260X3.500120*%
%ADD18C,0.600000*%
%ADD19C,0.250000*%
%ADD20C,0.254000*%
G04 APERTURE END LIST*
D10*
D11*
X172500000Y-119000000D03*
X177500000Y-119000000D03*
X172500000Y-112000000D03*
X177500000Y-112000000D03*
X172500000Y-77000000D03*
X177500000Y-77000000D03*
X172500000Y-84000000D03*
X177500000Y-84000000D03*
X172500000Y-91000000D03*
X177500000Y-91000000D03*
X137400000Y-65500000D03*
X121600000Y-65500000D03*
X122700000Y-79000000D03*
X136300000Y-79000000D03*
X160900000Y-65500000D03*
X145100000Y-65500000D03*
X146200000Y-79000000D03*
X159800000Y-79000000D03*
D12*
X123000000Y-108140000D03*
D13*
X123000000Y-105600000D03*
D14*
X123000000Y-101550000D03*
X123000000Y-99010000D03*
X123000000Y-96470000D03*
X123000000Y-93930000D03*
X123000000Y-91390000D03*
X123000000Y-88850000D03*
D15*
X135200000Y-88800000D03*
D16*
X137740000Y-88800000D03*
X140280000Y-88800000D03*
X142820000Y-88800000D03*
X145360000Y-88800000D03*
X147900000Y-88800000D03*
D12*
X123000000Y-120220000D03*
D13*
X123000000Y-112600000D03*
D12*
X123000000Y-115140000D03*
X123000000Y-117680000D03*
D11*
X172500000Y-105000000D03*
X177500000Y-105000000D03*
X172500000Y-98000000D03*
X177500000Y-98000000D03*
D17*
X161000000Y-103400000D03*
X163540000Y-103400000D03*
X158460000Y-103400000D03*
D18*
X145600000Y-102800000D03*
X140400000Y-85000000D03*
X140000000Y-93800000D03*
X146600000Y-97000000D03*
X141000000Y-106600000D03*
X144200000Y-111400000D03*
X132600000Y-103800000D03*
X129400000Y-104000000D03*
X124000000Y-86800000D03*
X140000000Y-113200000D03*
X156200000Y-74400000D03*
X150600000Y-74600000D03*
X133000000Y-74400000D03*
X126800000Y-74800000D03*
X146400000Y-92800000D03*
X152400000Y-87600000D03*
X148800000Y-90800000D03*
X137200000Y-95000000D03*
X143600000Y-92200000D03*
X130600000Y-99800000D03*
X142600000Y-101000000D03*
X140600000Y-92800000D03*
X142800000Y-96000000D03*
X135600000Y-104000000D03*
X133000000Y-100800000D03*
X151000000Y-80600000D03*
X146400000Y-101600000D03*
X151000000Y-77200000D03*
X128000000Y-76800000D03*
X153600000Y-80600000D03*
X150800000Y-87800000D03*
X153000000Y-76200000D03*
X133000000Y-75600000D03*
D19*
X146600000Y-97000000D02*
X145600000Y-98000000D01*
X145600000Y-98000000D02*
X145600000Y-102800000D01*
X137740000Y-87660000D02*
X137740000Y-88800000D01*
X140400000Y-85000000D02*
X137740000Y-87660000D01*
X140000000Y-96000000D02*
X140000000Y-93800000D01*
X141000000Y-97000000D02*
X140000000Y-96000000D01*
X146600000Y-97000000D02*
X141000000Y-97000000D01*
X141000000Y-108200000D02*
X141000000Y-106600000D01*
X144200000Y-111400000D02*
X141000000Y-108200000D01*
X132600000Y-103800000D02*
X132400000Y-104000000D01*
X132400000Y-104000000D02*
X129400000Y-104000000D01*
X137740000Y-88800000D02*
X137740000Y-87140000D01*
X137740000Y-87140000D02*
X137400000Y-86800000D01*
X137400000Y-86800000D02*
X124000000Y-86800000D01*
X121470000Y-96470000D02*
X123000000Y-96470000D01*
X124000000Y-86800000D02*
X121600000Y-86800000D01*
X121600000Y-86800000D02*
X120600000Y-87800000D01*
X120600000Y-87800000D02*
X120600000Y-95600000D01*
X120600000Y-95600000D02*
X121470000Y-96470000D01*
X150800000Y-74400000D02*
X156200000Y-74400000D01*
X150600000Y-74600000D02*
X150800000Y-74400000D01*
X127200000Y-74400000D02*
X133000000Y-74400000D01*
X126800000Y-74800000D02*
X127200000Y-74400000D01*
X146400000Y-92800000D02*
X146800000Y-92800000D01*
X146800000Y-92800000D02*
X148800000Y-90800000D01*
X145360000Y-88800000D02*
X145360000Y-90440000D01*
X145360000Y-90440000D02*
X143600000Y-92200000D01*
X124730000Y-93930000D02*
X123000000Y-93930000D01*
X130600000Y-99800000D02*
X124730000Y-93930000D01*
X123000000Y-91390000D02*
X124990000Y-91390000D01*
X134600000Y-101000000D02*
X142600000Y-101000000D01*
X124990000Y-91390000D02*
X134600000Y-101000000D01*
X135200000Y-88800000D02*
X135200000Y-90600000D01*
X140200000Y-92400000D02*
X140600000Y-92800000D01*
X137000000Y-92400000D02*
X140200000Y-92400000D01*
X135200000Y-90600000D02*
X137000000Y-92400000D01*
X142820000Y-88800000D02*
X142820000Y-95980000D01*
X142820000Y-95980000D02*
X142800000Y-96000000D01*
X135600000Y-103400000D02*
X135600000Y-104000000D01*
X133000000Y-100800000D02*
X135600000Y-103400000D01*
X149600000Y-82000000D02*
X151000000Y-80600000D01*
X149600000Y-98400000D02*
X149600000Y-82000000D01*
X146400000Y-101600000D02*
X149600000Y-98400000D01*
X150200000Y-76400000D02*
X151000000Y-77200000D01*
X128400000Y-76400000D02*
X150200000Y-76400000D01*
X128000000Y-76800000D02*
X128400000Y-76400000D01*
X153600000Y-85000000D02*
X153600000Y-80600000D01*
X150800000Y-87800000D02*
X153600000Y-85000000D01*
X152400000Y-75600000D02*
X153000000Y-76200000D01*
X151600000Y-75600000D02*
X152400000Y-75600000D01*
X133000000Y-75600000D02*
X151600000Y-75600000D01*
D20*
G36*
X184873000Y-127873000D02*
X117127000Y-127873000D01*
X117127000Y-112885750D01*
X121365510Y-112885750D01*
X121365510Y-113725799D01*
X121462183Y-113959188D01*
X121640811Y-114137817D01*
X121703013Y-114163582D01*
X121489928Y-114482486D01*
X121365510Y-115107978D01*
X121365510Y-115172022D01*
X121489928Y-115797514D01*
X121844241Y-116327781D01*
X121967290Y-116410000D01*
X121844241Y-116492219D01*
X121489928Y-117022486D01*
X121365510Y-117647978D01*
X121365510Y-117712022D01*
X121489928Y-118337514D01*
X121844241Y-118867781D01*
X121967290Y-118950000D01*
X121844241Y-119032219D01*
X121489928Y-119562486D01*
X121365510Y-120187978D01*
X121365510Y-120252022D01*
X121489928Y-120877514D01*
X121844241Y-121407781D01*
X122374508Y-121762094D01*
X123000000Y-121886512D01*
X123625492Y-121762094D01*
X124155759Y-121407781D01*
X124510072Y-120877514D01*
X124552141Y-120666015D01*
X158464641Y-120666015D01*
X158849746Y-121598041D01*
X159562208Y-122311748D01*
X160493561Y-122698479D01*
X161502015Y-122699359D01*
X162434041Y-122314254D01*
X163147748Y-121601792D01*
X163534479Y-120670439D01*
X163535359Y-119661985D01*
X163150254Y-118729959D01*
X162437792Y-118016252D01*
X161506439Y-117629521D01*
X160497985Y-117628641D01*
X159565959Y-118013746D01*
X158852252Y-118726208D01*
X158465521Y-119657561D01*
X158464641Y-120666015D01*
X124552141Y-120666015D01*
X124634490Y-120252022D01*
X124634490Y-120187978D01*
X124510072Y-119562486D01*
X124155759Y-119032219D01*
X124032710Y-118950000D01*
X124155759Y-118867781D01*
X124510072Y-118337514D01*
X124634490Y-117712022D01*
X124634490Y-117647978D01*
X124605056Y-117500000D01*
X170352560Y-117500000D01*
X170352560Y-120500000D01*
X170396838Y-120735317D01*
X170535910Y-120951441D01*
X170748110Y-121096431D01*
X171000000Y-121147440D01*
X174000000Y-121147440D01*
X174235317Y-121103162D01*
X174451441Y-120964090D01*
X174596431Y-120751890D01*
X174647440Y-120500000D01*
X174647440Y-117500000D01*
X175352560Y-117500000D01*
X175352560Y-120500000D01*
X175396838Y-120735317D01*
X175535910Y-120951441D01*
X175748110Y-121096431D01*
X176000000Y-121147440D01*
X179000000Y-121147440D01*
X179235317Y-121103162D01*
X179451441Y-120964090D01*
X179596431Y-120751890D01*
X179647440Y-120500000D01*
X179647440Y-117500000D01*
X179603162Y-117264683D01*
X179464090Y-117048559D01*
X179251890Y-116903569D01*
X179000000Y-116852560D01*
X176000000Y-116852560D01*
X175764683Y-116896838D01*
X175548559Y-117035910D01*
X175403569Y-117248110D01*
X175352560Y-117500000D01*
X174647440Y-117500000D01*
X174603162Y-117264683D01*
X174464090Y-117048559D01*
X174251890Y-116903569D01*
X174000000Y-116852560D01*
X171000000Y-116852560D01*
X170764683Y-116896838D01*
X170548559Y-117035910D01*
X170403569Y-117248110D01*
X170352560Y-117500000D01*
X124605056Y-117500000D01*
X124510072Y-117022486D01*
X124155759Y-116492219D01*
X124032710Y-116410000D01*
X124155759Y-116327781D01*
X124510072Y-115797514D01*
X124634490Y-115172022D01*
X124634490Y-115107978D01*
X124510072Y-114482486D01*
X124296987Y-114163582D01*
X124359189Y-114137817D01*
X124537817Y-113959188D01*
X124634490Y-113725799D01*
X124634490Y-112885750D01*
X124475740Y-112727000D01*
X123127000Y-112727000D01*
X123127000Y-112747000D01*
X122873000Y-112747000D01*
X122873000Y-112727000D01*
X121524260Y-112727000D01*
X121365510Y-112885750D01*
X117127000Y-112885750D01*
X117127000Y-111474201D01*
X121365510Y-111474201D01*
X121365510Y-112314250D01*
X121524260Y-112473000D01*
X122873000Y-112473000D01*
X122873000Y-111124260D01*
X123127000Y-111124260D01*
X123127000Y-112473000D01*
X124475740Y-112473000D01*
X124634490Y-112314250D01*
X124634490Y-111474201D01*
X124537817Y-111240812D01*
X124359189Y-111062183D01*
X124125800Y-110965510D01*
X123285750Y-110965510D01*
X123127000Y-111124260D01*
X122873000Y-111124260D01*
X122714250Y-110965510D01*
X121874200Y-110965510D01*
X121640811Y-111062183D01*
X121462183Y-111240812D01*
X121365510Y-111474201D01*
X117127000Y-111474201D01*
X117127000Y-108520355D01*
X121410373Y-108520355D01*
X121676932Y-109099726D01*
X122144916Y-109532987D01*
X122619646Y-109729619D01*
X122873000Y-109610265D01*
X122873000Y-108267000D01*
X123127000Y-108267000D01*
X123127000Y-109610265D01*
X123380354Y-109729619D01*
X123855084Y-109532987D01*
X124323068Y-109099726D01*
X124589627Y-108520355D01*
X124470807Y-108267000D01*
X123127000Y-108267000D01*
X122873000Y-108267000D01*
X121529193Y-108267000D01*
X121410373Y-108520355D01*
X117127000Y-108520355D01*
X117127000Y-104600510D01*
X121353070Y-104600510D01*
X121353070Y-106599490D01*
X121397348Y-106834807D01*
X121536420Y-107050931D01*
X121697649Y-107161094D01*
X121676932Y-107180274D01*
X121410373Y-107759645D01*
X121529193Y-108013000D01*
X122873000Y-108013000D01*
X122873000Y-107993000D01*
X123127000Y-107993000D01*
X123127000Y-108013000D01*
X124470807Y-108013000D01*
X124589627Y-107759645D01*
X124323068Y-107180274D01*
X124301137Y-107159970D01*
X124450931Y-107063580D01*
X124595921Y-106851380D01*
X124609329Y-106785167D01*
X140064838Y-106785167D01*
X140206883Y-107128943D01*
X140240000Y-107162118D01*
X140240000Y-108200000D01*
X140297852Y-108490839D01*
X140462599Y-108737401D01*
X143264878Y-111539680D01*
X143264838Y-111585167D01*
X143406883Y-111928943D01*
X143669673Y-112192192D01*
X144013201Y-112334838D01*
X144385167Y-112335162D01*
X144728943Y-112193117D01*
X144992192Y-111930327D01*
X145134838Y-111586799D01*
X145135162Y-111214833D01*
X144993117Y-110871057D01*
X144730327Y-110607808D01*
X144470698Y-110500000D01*
X170352560Y-110500000D01*
X170352560Y-113500000D01*
X170396838Y-113735317D01*
X170535910Y-113951441D01*
X170748110Y-114096431D01*
X171000000Y-114147440D01*
X174000000Y-114147440D01*
X174235317Y-114103162D01*
X174451441Y-113964090D01*
X174596431Y-113751890D01*
X174647440Y-113500000D01*
X174647440Y-110500000D01*
X175352560Y-110500000D01*
X175352560Y-113500000D01*
X175396838Y-113735317D01*
X175535910Y-113951441D01*
X175748110Y-114096431D01*
X176000000Y-114147440D01*
X179000000Y-114147440D01*
X179235317Y-114103162D01*
X179451441Y-113964090D01*
X179596431Y-113751890D01*
X179647440Y-113500000D01*
X179647440Y-110500000D01*
X179603162Y-110264683D01*
X179464090Y-110048559D01*
X179251890Y-109903569D01*
X179000000Y-109852560D01*
X176000000Y-109852560D01*
X175764683Y-109896838D01*
X175548559Y-110035910D01*
X175403569Y-110248110D01*
X175352560Y-110500000D01*
X174647440Y-110500000D01*
X174603162Y-110264683D01*
X174464090Y-110048559D01*
X174251890Y-109903569D01*
X174000000Y-109852560D01*
X171000000Y-109852560D01*
X170764683Y-109896838D01*
X170548559Y-110035910D01*
X170403569Y-110248110D01*
X170352560Y-110500000D01*
X144470698Y-110500000D01*
X144386799Y-110465162D01*
X144339923Y-110465121D01*
X141760000Y-107885198D01*
X141760000Y-107162463D01*
X141792192Y-107130327D01*
X141934838Y-106786799D01*
X141935162Y-106414833D01*
X141793117Y-106071057D01*
X141530327Y-105807808D01*
X141186799Y-105665162D01*
X140814833Y-105664838D01*
X140471057Y-105806883D01*
X140207808Y-106069673D01*
X140065162Y-106413201D01*
X140064838Y-106785167D01*
X124609329Y-106785167D01*
X124646930Y-106599490D01*
X124646930Y-104600510D01*
X124602652Y-104365193D01*
X124486809Y-104185167D01*
X128464838Y-104185167D01*
X128606883Y-104528943D01*
X128869673Y-104792192D01*
X129213201Y-104934838D01*
X129585167Y-104935162D01*
X129928943Y-104793117D01*
X129962118Y-104760000D01*
X132400000Y-104760000D01*
X132526003Y-104734936D01*
X132785167Y-104735162D01*
X133128943Y-104593117D01*
X133392192Y-104330327D01*
X133534838Y-103986799D01*
X133535162Y-103614833D01*
X133393117Y-103271057D01*
X133130327Y-103007808D01*
X132786799Y-102865162D01*
X132414833Y-102864838D01*
X132071057Y-103006883D01*
X131837533Y-103240000D01*
X129962463Y-103240000D01*
X129930327Y-103207808D01*
X129586799Y-103065162D01*
X129214833Y-103064838D01*
X128871057Y-103206883D01*
X128607808Y-103469673D01*
X128465162Y-103813201D01*
X128464838Y-104185167D01*
X124486809Y-104185167D01*
X124463580Y-104149069D01*
X124251380Y-104004079D01*
X123999490Y-103953070D01*
X122000510Y-103953070D01*
X121765193Y-103997348D01*
X121549069Y-104136420D01*
X121404079Y-104348620D01*
X121353070Y-104600510D01*
X117127000Y-104600510D01*
X117127000Y-101891674D01*
X120900217Y-101891674D01*
X120914573Y-101963875D01*
X121174276Y-102441740D01*
X121597081Y-102783846D01*
X122118620Y-102938110D01*
X122873000Y-102938110D01*
X122873000Y-101677000D01*
X123127000Y-101677000D01*
X123127000Y-102938110D01*
X123881380Y-102938110D01*
X124402919Y-102783846D01*
X124825724Y-102441740D01*
X125085427Y-101963875D01*
X125099783Y-101891674D01*
X124977162Y-101677000D01*
X123127000Y-101677000D01*
X122873000Y-101677000D01*
X121022838Y-101677000D01*
X120900217Y-101891674D01*
X117127000Y-101891674D01*
X117127000Y-87800000D01*
X119840000Y-87800000D01*
X119840000Y-95600000D01*
X119897852Y-95890839D01*
X120062599Y-96137401D01*
X120919908Y-96994710D01*
X120921200Y-97001207D01*
X121222104Y-97451542D01*
X121653812Y-97740000D01*
X121222104Y-98028458D01*
X120921200Y-98478793D01*
X120815536Y-99010000D01*
X120921200Y-99541207D01*
X121222104Y-99991542D01*
X121672439Y-100292446D01*
X121675306Y-100293016D01*
X121597081Y-100316154D01*
X121174276Y-100658260D01*
X120914573Y-101136125D01*
X120900217Y-101208326D01*
X121022838Y-101423000D01*
X122873000Y-101423000D01*
X122873000Y-101403000D01*
X123127000Y-101403000D01*
X123127000Y-101423000D01*
X124977162Y-101423000D01*
X125099783Y-101208326D01*
X125085427Y-101136125D01*
X124825724Y-100658260D01*
X124402919Y-100316154D01*
X124324694Y-100293016D01*
X124327561Y-100292446D01*
X124777896Y-99991542D01*
X125078800Y-99541207D01*
X125184464Y-99010000D01*
X125078800Y-98478793D01*
X124777896Y-98028458D01*
X124346188Y-97740000D01*
X124777896Y-97451542D01*
X125078800Y-97001207D01*
X125184464Y-96470000D01*
X125078800Y-95938793D01*
X124777896Y-95488458D01*
X124346188Y-95200000D01*
X124693279Y-94968081D01*
X129664878Y-99939680D01*
X129664838Y-99985167D01*
X129806883Y-100328943D01*
X130069673Y-100592192D01*
X130413201Y-100734838D01*
X130785167Y-100735162D01*
X131128943Y-100593117D01*
X131392192Y-100330327D01*
X131534838Y-99986799D01*
X131535162Y-99614833D01*
X131393117Y-99271057D01*
X131130327Y-99007808D01*
X130786799Y-98865162D01*
X130739923Y-98865121D01*
X125267401Y-93392599D01*
X125020839Y-93227852D01*
X124955958Y-93214946D01*
X124777896Y-92948458D01*
X124346188Y-92660000D01*
X124777896Y-92371542D01*
X124825498Y-92300300D01*
X132514239Y-99989041D01*
X132471057Y-100006883D01*
X132207808Y-100269673D01*
X132065162Y-100613201D01*
X132064838Y-100985167D01*
X132206883Y-101328943D01*
X132469673Y-101592192D01*
X132813201Y-101734838D01*
X132860077Y-101734879D01*
X134745331Y-103620133D01*
X134665162Y-103813201D01*
X134664838Y-104185167D01*
X134806883Y-104528943D01*
X135069673Y-104792192D01*
X135413201Y-104934838D01*
X135785167Y-104935162D01*
X136128943Y-104793117D01*
X136392192Y-104530327D01*
X136534838Y-104186799D01*
X136535162Y-103814833D01*
X136393117Y-103471057D01*
X136360000Y-103437882D01*
X136360000Y-103400000D01*
X136302148Y-103109161D01*
X136302148Y-103109160D01*
X136137401Y-102862599D01*
X135034802Y-101760000D01*
X142037537Y-101760000D01*
X142069673Y-101792192D01*
X142413201Y-101934838D01*
X142785167Y-101935162D01*
X143128943Y-101793117D01*
X143392192Y-101530327D01*
X143534838Y-101186799D01*
X143535162Y-100814833D01*
X143393117Y-100471057D01*
X143130327Y-100207808D01*
X142786799Y-100065162D01*
X142414833Y-100064838D01*
X142071057Y-100206883D01*
X142037882Y-100240000D01*
X134914802Y-100240000D01*
X125527401Y-90852599D01*
X125280839Y-90687852D01*
X124990000Y-90630000D01*
X124925926Y-90630000D01*
X124777896Y-90408458D01*
X124346188Y-90120000D01*
X124777896Y-89831542D01*
X125078800Y-89381207D01*
X125184464Y-88850000D01*
X125078800Y-88318793D01*
X124777896Y-87868458D01*
X124428148Y-87634764D01*
X124528943Y-87593117D01*
X124562118Y-87560000D01*
X133734321Y-87560000D01*
X133688960Y-87784000D01*
X133688960Y-89816000D01*
X133733238Y-90051317D01*
X133872310Y-90267441D01*
X134084510Y-90412431D01*
X134336400Y-90463440D01*
X134440000Y-90463440D01*
X134440000Y-90600000D01*
X134497852Y-90890839D01*
X134662599Y-91137401D01*
X136462599Y-92937401D01*
X136709160Y-93102148D01*
X136757414Y-93111746D01*
X137000000Y-93160000D01*
X139317673Y-93160000D01*
X139207808Y-93269673D01*
X139065162Y-93613201D01*
X139064838Y-93985167D01*
X139206883Y-94328943D01*
X139240000Y-94362118D01*
X139240000Y-96000000D01*
X139297852Y-96290839D01*
X139462599Y-96537401D01*
X140462599Y-97537401D01*
X140709161Y-97702148D01*
X141000000Y-97760000D01*
X144887739Y-97760000D01*
X144840000Y-98000000D01*
X144840000Y-102237537D01*
X144807808Y-102269673D01*
X144665162Y-102613201D01*
X144664838Y-102985167D01*
X144806883Y-103328943D01*
X145069673Y-103592192D01*
X145413201Y-103734838D01*
X145785167Y-103735162D01*
X146128943Y-103593117D01*
X146392192Y-103330327D01*
X146534838Y-102986799D01*
X146535162Y-102614833D01*
X146502213Y-102535090D01*
X146585167Y-102535162D01*
X146784392Y-102452844D01*
X156975370Y-102452844D01*
X156975370Y-104347156D01*
X157088381Y-104915299D01*
X157410208Y-105396948D01*
X157891857Y-105718775D01*
X158460000Y-105831786D01*
X159028143Y-105718775D01*
X159509792Y-105396948D01*
X159730000Y-105067383D01*
X159950208Y-105396948D01*
X160431857Y-105718775D01*
X161000000Y-105831786D01*
X161568143Y-105718775D01*
X162049792Y-105396948D01*
X162270000Y-105067383D01*
X162490208Y-105396948D01*
X162971857Y-105718775D01*
X163540000Y-105831786D01*
X164108143Y-105718775D01*
X164589792Y-105396948D01*
X164911619Y-104915299D01*
X165024630Y-104347156D01*
X165024630Y-103500000D01*
X170352560Y-103500000D01*
X170352560Y-106500000D01*
X170396838Y-106735317D01*
X170535910Y-106951441D01*
X170748110Y-107096431D01*
X171000000Y-107147440D01*
X174000000Y-107147440D01*
X174235317Y-107103162D01*
X174451441Y-106964090D01*
X174596431Y-106751890D01*
X174647440Y-106500000D01*
X174647440Y-103500000D01*
X175352560Y-103500000D01*
X175352560Y-106500000D01*
X175396838Y-106735317D01*
X175535910Y-106951441D01*
X175748110Y-107096431D01*
X176000000Y-107147440D01*
X179000000Y-107147440D01*
X179235317Y-107103162D01*
X179451441Y-106964090D01*
X179596431Y-106751890D01*
X179647440Y-106500000D01*
X179647440Y-103500000D01*
X179603162Y-103264683D01*
X179464090Y-103048559D01*
X179251890Y-102903569D01*
X179000000Y-102852560D01*
X176000000Y-102852560D01*
X175764683Y-102896838D01*
X175548559Y-103035910D01*
X175403569Y-103248110D01*
X175352560Y-103500000D01*
X174647440Y-103500000D01*
X174603162Y-103264683D01*
X174464090Y-103048559D01*
X174251890Y-102903569D01*
X174000000Y-102852560D01*
X171000000Y-102852560D01*
X170764683Y-102896838D01*
X170548559Y-103035910D01*
X170403569Y-103248110D01*
X170352560Y-103500000D01*
X165024630Y-103500000D01*
X165024630Y-102452844D01*
X164911619Y-101884701D01*
X164589792Y-101403052D01*
X164108143Y-101081225D01*
X163540000Y-100968214D01*
X162971857Y-101081225D01*
X162490208Y-101403052D01*
X162270000Y-101732617D01*
X162049792Y-101403052D01*
X161568143Y-101081225D01*
X161000000Y-100968214D01*
X160431857Y-101081225D01*
X159950208Y-101403052D01*
X159730000Y-101732617D01*
X159509792Y-101403052D01*
X159028143Y-101081225D01*
X158460000Y-100968214D01*
X157891857Y-101081225D01*
X157410208Y-101403052D01*
X157088381Y-101884701D01*
X156975370Y-102452844D01*
X146784392Y-102452844D01*
X146928943Y-102393117D01*
X147192192Y-102130327D01*
X147334838Y-101786799D01*
X147334879Y-101739923D01*
X150137401Y-98937401D01*
X150302148Y-98690840D01*
X150360000Y-98400000D01*
X150360000Y-96500000D01*
X170352560Y-96500000D01*
X170352560Y-99500000D01*
X170396838Y-99735317D01*
X170535910Y-99951441D01*
X170748110Y-100096431D01*
X171000000Y-100147440D01*
X174000000Y-100147440D01*
X174235317Y-100103162D01*
X174451441Y-99964090D01*
X174596431Y-99751890D01*
X174647440Y-99500000D01*
X174647440Y-96500000D01*
X175352560Y-96500000D01*
X175352560Y-99500000D01*
X175396838Y-99735317D01*
X175535910Y-99951441D01*
X175748110Y-100096431D01*
X176000000Y-100147440D01*
X179000000Y-100147440D01*
X179235317Y-100103162D01*
X179451441Y-99964090D01*
X179596431Y-99751890D01*
X179647440Y-99500000D01*
X179647440Y-96500000D01*
X179603162Y-96264683D01*
X179464090Y-96048559D01*
X179251890Y-95903569D01*
X179000000Y-95852560D01*
X176000000Y-95852560D01*
X175764683Y-95896838D01*
X175548559Y-96035910D01*
X175403569Y-96248110D01*
X175352560Y-96500000D01*
X174647440Y-96500000D01*
X174603162Y-96264683D01*
X174464090Y-96048559D01*
X174251890Y-95903569D01*
X174000000Y-95852560D01*
X171000000Y-95852560D01*
X170764683Y-95896838D01*
X170548559Y-96035910D01*
X170403569Y-96248110D01*
X170352560Y-96500000D01*
X150360000Y-96500000D01*
X150360000Y-89500000D01*
X170352560Y-89500000D01*
X170352560Y-92500000D01*
X170396838Y-92735317D01*
X170535910Y-92951441D01*
X170748110Y-93096431D01*
X171000000Y-93147440D01*
X174000000Y-93147440D01*
X174235317Y-93103162D01*
X174451441Y-92964090D01*
X174596431Y-92751890D01*
X174647440Y-92500000D01*
X174647440Y-89500000D01*
X175352560Y-89500000D01*
X175352560Y-92500000D01*
X175396838Y-92735317D01*
X175535910Y-92951441D01*
X175748110Y-93096431D01*
X176000000Y-93147440D01*
X179000000Y-93147440D01*
X179235317Y-93103162D01*
X179451441Y-92964090D01*
X179596431Y-92751890D01*
X179647440Y-92500000D01*
X179647440Y-89500000D01*
X179603162Y-89264683D01*
X179464090Y-89048559D01*
X179251890Y-88903569D01*
X179000000Y-88852560D01*
X176000000Y-88852560D01*
X175764683Y-88896838D01*
X175548559Y-89035910D01*
X175403569Y-89248110D01*
X175352560Y-89500000D01*
X174647440Y-89500000D01*
X174603162Y-89264683D01*
X174464090Y-89048559D01*
X174251890Y-88903569D01*
X174000000Y-88852560D01*
X171000000Y-88852560D01*
X170764683Y-88896838D01*
X170548559Y-89035910D01*
X170403569Y-89248110D01*
X170352560Y-89500000D01*
X150360000Y-89500000D01*
X150360000Y-88629699D01*
X150613201Y-88734838D01*
X150985167Y-88735162D01*
X151328943Y-88593117D01*
X151592192Y-88330327D01*
X151734838Y-87986799D01*
X151734879Y-87939923D01*
X154137401Y-85537401D01*
X154302148Y-85290839D01*
X154360000Y-85000000D01*
X154360000Y-82500000D01*
X170352560Y-82500000D01*
X170352560Y-85500000D01*
X170396838Y-85735317D01*
X170535910Y-85951441D01*
X170748110Y-86096431D01*
X171000000Y-86147440D01*
X174000000Y-86147440D01*
X174235317Y-86103162D01*
X174451441Y-85964090D01*
X174596431Y-85751890D01*
X174647440Y-85500000D01*
X174647440Y-82500000D01*
X175352560Y-82500000D01*
X175352560Y-85500000D01*
X175396838Y-85735317D01*
X175535910Y-85951441D01*
X175748110Y-86096431D01*
X176000000Y-86147440D01*
X179000000Y-86147440D01*
X179235317Y-86103162D01*
X179451441Y-85964090D01*
X179596431Y-85751890D01*
X179647440Y-85500000D01*
X179647440Y-82500000D01*
X179603162Y-82264683D01*
X179464090Y-82048559D01*
X179251890Y-81903569D01*
X179000000Y-81852560D01*
X176000000Y-81852560D01*
X175764683Y-81896838D01*
X175548559Y-82035910D01*
X175403569Y-82248110D01*
X175352560Y-82500000D01*
X174647440Y-82500000D01*
X174603162Y-82264683D01*
X174464090Y-82048559D01*
X174251890Y-81903569D01*
X174000000Y-81852560D01*
X171000000Y-81852560D01*
X170764683Y-81896838D01*
X170548559Y-82035910D01*
X170403569Y-82248110D01*
X170352560Y-82500000D01*
X154360000Y-82500000D01*
X154360000Y-81162463D01*
X154392192Y-81130327D01*
X154534838Y-80786799D01*
X154535162Y-80414833D01*
X154393117Y-80071057D01*
X154130327Y-79807808D01*
X153786799Y-79665162D01*
X153414833Y-79664838D01*
X153071057Y-79806883D01*
X152807808Y-80069673D01*
X152665162Y-80413201D01*
X152664838Y-80785167D01*
X152806883Y-81128943D01*
X152840000Y-81162118D01*
X152840000Y-84685198D01*
X150660320Y-86864878D01*
X150614833Y-86864838D01*
X150360000Y-86970133D01*
X150360000Y-82314802D01*
X151139680Y-81535122D01*
X151185167Y-81535162D01*
X151528943Y-81393117D01*
X151792192Y-81130327D01*
X151934838Y-80786799D01*
X151935162Y-80414833D01*
X151793117Y-80071057D01*
X151530327Y-79807808D01*
X151186799Y-79665162D01*
X150814833Y-79664838D01*
X150471057Y-79806883D01*
X150207808Y-80069673D01*
X150065162Y-80413201D01*
X150065121Y-80460077D01*
X149062599Y-81462599D01*
X148897852Y-81709161D01*
X148840000Y-82000000D01*
X148840000Y-87475624D01*
X148473489Y-87230729D01*
X147900000Y-87116655D01*
X147326511Y-87230729D01*
X146840330Y-87555585D01*
X146630000Y-87870366D01*
X146419670Y-87555585D01*
X145933489Y-87230729D01*
X145360000Y-87116655D01*
X144786511Y-87230729D01*
X144300330Y-87555585D01*
X144090000Y-87870366D01*
X143879670Y-87555585D01*
X143393489Y-87230729D01*
X142820000Y-87116655D01*
X142246511Y-87230729D01*
X141760330Y-87555585D01*
X141553539Y-87865069D01*
X141182036Y-87449268D01*
X140654791Y-87195291D01*
X140639026Y-87192642D01*
X140407000Y-87313783D01*
X140407000Y-88673000D01*
X140427000Y-88673000D01*
X140427000Y-88927000D01*
X140407000Y-88927000D01*
X140407000Y-90286217D01*
X140639026Y-90407358D01*
X140654791Y-90404709D01*
X141182036Y-90150732D01*
X141553539Y-89734931D01*
X141760330Y-90044415D01*
X142060000Y-90244648D01*
X142060000Y-95417572D01*
X142007808Y-95469673D01*
X141865162Y-95813201D01*
X141864838Y-96185167D01*
X141887494Y-96240000D01*
X141314802Y-96240000D01*
X140760000Y-95685198D01*
X140760000Y-94362463D01*
X140792192Y-94330327D01*
X140934838Y-93986799D01*
X140935111Y-93673206D01*
X141128943Y-93593117D01*
X141392192Y-93330327D01*
X141534838Y-92986799D01*
X141535162Y-92614833D01*
X141393117Y-92271057D01*
X141130327Y-92007808D01*
X140786799Y-91865162D01*
X140739923Y-91865121D01*
X140737401Y-91862599D01*
X140490839Y-91697852D01*
X140200000Y-91640000D01*
X137314802Y-91640000D01*
X136126421Y-90451619D01*
X136298917Y-90419162D01*
X136515041Y-90280090D01*
X136660031Y-90067890D01*
X136668400Y-90026561D01*
X136680330Y-90044415D01*
X137166511Y-90369271D01*
X137740000Y-90483345D01*
X138313489Y-90369271D01*
X138799670Y-90044415D01*
X139006461Y-89734931D01*
X139377964Y-90150732D01*
X139905209Y-90404709D01*
X139920974Y-90407358D01*
X140153000Y-90286217D01*
X140153000Y-88927000D01*
X140133000Y-88927000D01*
X140133000Y-88673000D01*
X140153000Y-88673000D01*
X140153000Y-87313783D01*
X139920974Y-87192642D01*
X139905209Y-87195291D01*
X139377964Y-87449268D01*
X139006461Y-87865069D01*
X138847554Y-87627248D01*
X140539680Y-85935122D01*
X140585167Y-85935162D01*
X140928943Y-85793117D01*
X141192192Y-85530327D01*
X141334838Y-85186799D01*
X141335162Y-84814833D01*
X141193117Y-84471057D01*
X140930327Y-84207808D01*
X140586799Y-84065162D01*
X140214833Y-84064838D01*
X139871057Y-84206883D01*
X139607808Y-84469673D01*
X139465162Y-84813201D01*
X139465121Y-84860077D01*
X138000000Y-86325198D01*
X137937401Y-86262599D01*
X137690839Y-86097852D01*
X137400000Y-86040000D01*
X124562463Y-86040000D01*
X124530327Y-86007808D01*
X124186799Y-85865162D01*
X123814833Y-85864838D01*
X123471057Y-86006883D01*
X123437882Y-86040000D01*
X121600000Y-86040000D01*
X121309161Y-86097852D01*
X121062599Y-86262599D01*
X120062599Y-87262599D01*
X119897852Y-87509161D01*
X119840000Y-87800000D01*
X117127000Y-87800000D01*
X117127000Y-77500000D01*
X120552560Y-77500000D01*
X120552560Y-80500000D01*
X120596838Y-80735317D01*
X120735910Y-80951441D01*
X120948110Y-81096431D01*
X121200000Y-81147440D01*
X124200000Y-81147440D01*
X124435317Y-81103162D01*
X124651441Y-80964090D01*
X124796431Y-80751890D01*
X124847440Y-80500000D01*
X124847440Y-77500000D01*
X124803162Y-77264683D01*
X124664090Y-77048559D01*
X124571313Y-76985167D01*
X127064838Y-76985167D01*
X127206883Y-77328943D01*
X127469673Y-77592192D01*
X127813201Y-77734838D01*
X128185167Y-77735162D01*
X128528943Y-77593117D01*
X128792192Y-77330327D01*
X128862918Y-77160000D01*
X134263772Y-77160000D01*
X134203569Y-77248110D01*
X134152560Y-77500000D01*
X134152560Y-80500000D01*
X134196838Y-80735317D01*
X134335910Y-80951441D01*
X134548110Y-81096431D01*
X134800000Y-81147440D01*
X137800000Y-81147440D01*
X138035317Y-81103162D01*
X138251441Y-80964090D01*
X138396431Y-80751890D01*
X138447440Y-80500000D01*
X138447440Y-77500000D01*
X138403162Y-77264683D01*
X138335800Y-77160000D01*
X144163772Y-77160000D01*
X144103569Y-77248110D01*
X144052560Y-77500000D01*
X144052560Y-80500000D01*
X144096838Y-80735317D01*
X144235910Y-80951441D01*
X144448110Y-81096431D01*
X144700000Y-81147440D01*
X147700000Y-81147440D01*
X147935317Y-81103162D01*
X148151441Y-80964090D01*
X148296431Y-80751890D01*
X148347440Y-80500000D01*
X148347440Y-77500000D01*
X148303162Y-77264683D01*
X148235800Y-77160000D01*
X149885198Y-77160000D01*
X150064878Y-77339680D01*
X150064838Y-77385167D01*
X150206883Y-77728943D01*
X150469673Y-77992192D01*
X150813201Y-78134838D01*
X151185167Y-78135162D01*
X151528943Y-77993117D01*
X151792192Y-77730327D01*
X151887832Y-77500000D01*
X157652560Y-77500000D01*
X157652560Y-80500000D01*
X157696838Y-80735317D01*
X157835910Y-80951441D01*
X158048110Y-81096431D01*
X158300000Y-81147440D01*
X161300000Y-81147440D01*
X161535317Y-81103162D01*
X161751441Y-80964090D01*
X161896431Y-80751890D01*
X161947440Y-80500000D01*
X161947440Y-77500000D01*
X161907127Y-77285750D01*
X170365000Y-77285750D01*
X170365000Y-78626310D01*
X170461673Y-78859699D01*
X170640302Y-79038327D01*
X170873691Y-79135000D01*
X172214250Y-79135000D01*
X172373000Y-78976250D01*
X172373000Y-77127000D01*
X172627000Y-77127000D01*
X172627000Y-78976250D01*
X172785750Y-79135000D01*
X174126309Y-79135000D01*
X174359698Y-79038327D01*
X174538327Y-78859699D01*
X174635000Y-78626310D01*
X174635000Y-77285750D01*
X175365000Y-77285750D01*
X175365000Y-78626310D01*
X175461673Y-78859699D01*
X175640302Y-79038327D01*
X175873691Y-79135000D01*
X177214250Y-79135000D01*
X177373000Y-78976250D01*
X177373000Y-77127000D01*
X177627000Y-77127000D01*
X177627000Y-78976250D01*
X177785750Y-79135000D01*
X179126309Y-79135000D01*
X179359698Y-79038327D01*
X179538327Y-78859699D01*
X179635000Y-78626310D01*
X179635000Y-77285750D01*
X179476250Y-77127000D01*
X177627000Y-77127000D01*
X177373000Y-77127000D01*
X175523750Y-77127000D01*
X175365000Y-77285750D01*
X174635000Y-77285750D01*
X174476250Y-77127000D01*
X172627000Y-77127000D01*
X172373000Y-77127000D01*
X170523750Y-77127000D01*
X170365000Y-77285750D01*
X161907127Y-77285750D01*
X161903162Y-77264683D01*
X161764090Y-77048559D01*
X161551890Y-76903569D01*
X161300000Y-76852560D01*
X158300000Y-76852560D01*
X158064683Y-76896838D01*
X157848559Y-77035910D01*
X157703569Y-77248110D01*
X157652560Y-77500000D01*
X151887832Y-77500000D01*
X151934838Y-77386799D01*
X151935162Y-77014833D01*
X151793117Y-76671057D01*
X151530327Y-76407808D01*
X151415193Y-76360000D01*
X152064860Y-76360000D01*
X152064838Y-76385167D01*
X152206883Y-76728943D01*
X152469673Y-76992192D01*
X152813201Y-77134838D01*
X153185167Y-77135162D01*
X153528943Y-76993117D01*
X153792192Y-76730327D01*
X153934838Y-76386799D01*
X153935162Y-76014833D01*
X153793117Y-75671057D01*
X153530327Y-75407808D01*
X153448163Y-75373690D01*
X170365000Y-75373690D01*
X170365000Y-76714250D01*
X170523750Y-76873000D01*
X172373000Y-76873000D01*
X172373000Y-75023750D01*
X172627000Y-75023750D01*
X172627000Y-76873000D01*
X174476250Y-76873000D01*
X174635000Y-76714250D01*
X174635000Y-75373690D01*
X175365000Y-75373690D01*
X175365000Y-76714250D01*
X175523750Y-76873000D01*
X177373000Y-76873000D01*
X177373000Y-75023750D01*
X177627000Y-75023750D01*
X177627000Y-76873000D01*
X179476250Y-76873000D01*
X179635000Y-76714250D01*
X179635000Y-75373690D01*
X179538327Y-75140301D01*
X179359698Y-74961673D01*
X179126309Y-74865000D01*
X177785750Y-74865000D01*
X177627000Y-75023750D01*
X177373000Y-75023750D01*
X177214250Y-74865000D01*
X175873691Y-74865000D01*
X175640302Y-74961673D01*
X175461673Y-75140301D01*
X175365000Y-75373690D01*
X174635000Y-75373690D01*
X174538327Y-75140301D01*
X174359698Y-74961673D01*
X174126309Y-74865000D01*
X172785750Y-74865000D01*
X172627000Y-75023750D01*
X172373000Y-75023750D01*
X172214250Y-74865000D01*
X170873691Y-74865000D01*
X170640302Y-74961673D01*
X170461673Y-75140301D01*
X170365000Y-75373690D01*
X153448163Y-75373690D01*
X153186799Y-75265162D01*
X153139923Y-75265121D01*
X152937401Y-75062599D01*
X152690839Y-74897852D01*
X152400000Y-74840000D01*
X133562463Y-74840000D01*
X133530327Y-74807808D01*
X133186799Y-74665162D01*
X132814833Y-74664838D01*
X132471057Y-74806883D01*
X132207808Y-75069673D01*
X132065162Y-75413201D01*
X132064964Y-75640000D01*
X128400000Y-75640000D01*
X128157414Y-75688254D01*
X128109160Y-75697852D01*
X127862599Y-75862599D01*
X127860320Y-75864878D01*
X127814833Y-75864838D01*
X127471057Y-76006883D01*
X127207808Y-76269673D01*
X127065162Y-76613201D01*
X127064838Y-76985167D01*
X124571313Y-76985167D01*
X124451890Y-76903569D01*
X124200000Y-76852560D01*
X121200000Y-76852560D01*
X120964683Y-76896838D01*
X120748559Y-77035910D01*
X120603569Y-77248110D01*
X120552560Y-77500000D01*
X117127000Y-77500000D01*
X117127000Y-64000000D01*
X119452560Y-64000000D01*
X119452560Y-67000000D01*
X119496838Y-67235317D01*
X119635910Y-67451441D01*
X119848110Y-67596431D01*
X120100000Y-67647440D01*
X123100000Y-67647440D01*
X123335317Y-67603162D01*
X123551441Y-67464090D01*
X123696431Y-67251890D01*
X123747440Y-67000000D01*
X123747440Y-64000000D01*
X135252560Y-64000000D01*
X135252560Y-67000000D01*
X135296838Y-67235317D01*
X135435910Y-67451441D01*
X135648110Y-67596431D01*
X135900000Y-67647440D01*
X138900000Y-67647440D01*
X139135317Y-67603162D01*
X139351441Y-67464090D01*
X139496431Y-67251890D01*
X139547440Y-67000000D01*
X139547440Y-64000000D01*
X142952560Y-64000000D01*
X142952560Y-67000000D01*
X142996838Y-67235317D01*
X143135910Y-67451441D01*
X143348110Y-67596431D01*
X143600000Y-67647440D01*
X146600000Y-67647440D01*
X146835317Y-67603162D01*
X147051441Y-67464090D01*
X147196431Y-67251890D01*
X147247440Y-67000000D01*
X147247440Y-64000000D01*
X158752560Y-64000000D01*
X158752560Y-67000000D01*
X158796838Y-67235317D01*
X158935910Y-67451441D01*
X159148110Y-67596431D01*
X159400000Y-67647440D01*
X162400000Y-67647440D01*
X162635317Y-67603162D01*
X162851441Y-67464090D01*
X162996431Y-67251890D01*
X163047440Y-67000000D01*
X163047440Y-64000000D01*
X163003162Y-63764683D01*
X162864090Y-63548559D01*
X162651890Y-63403569D01*
X162400000Y-63352560D01*
X159400000Y-63352560D01*
X159164683Y-63396838D01*
X158948559Y-63535910D01*
X158803569Y-63748110D01*
X158752560Y-64000000D01*
X147247440Y-64000000D01*
X147203162Y-63764683D01*
X147064090Y-63548559D01*
X146851890Y-63403569D01*
X146600000Y-63352560D01*
X143600000Y-63352560D01*
X143364683Y-63396838D01*
X143148559Y-63535910D01*
X143003569Y-63748110D01*
X142952560Y-64000000D01*
X139547440Y-64000000D01*
X139503162Y-63764683D01*
X139364090Y-63548559D01*
X139151890Y-63403569D01*
X138900000Y-63352560D01*
X135900000Y-63352560D01*
X135664683Y-63396838D01*
X135448559Y-63535910D01*
X135303569Y-63748110D01*
X135252560Y-64000000D01*
X123747440Y-64000000D01*
X123703162Y-63764683D01*
X123564090Y-63548559D01*
X123351890Y-63403569D01*
X123100000Y-63352560D01*
X120100000Y-63352560D01*
X119864683Y-63396838D01*
X119648559Y-63535910D01*
X119503569Y-63748110D01*
X119452560Y-64000000D01*
X117127000Y-64000000D01*
X117127000Y-62127000D01*
X184873000Y-62127000D01*
X184873000Y-127873000D01*
X184873000Y-127873000D01*
G37*
X184873000Y-127873000D02*
X117127000Y-127873000D01*
X117127000Y-112885750D01*
X121365510Y-112885750D01*
X121365510Y-113725799D01*
X121462183Y-113959188D01*
X121640811Y-114137817D01*
X121703013Y-114163582D01*
X121489928Y-114482486D01*
X121365510Y-115107978D01*
X121365510Y-115172022D01*
X121489928Y-115797514D01*
X121844241Y-116327781D01*
X121967290Y-116410000D01*
X121844241Y-116492219D01*
X121489928Y-117022486D01*
X121365510Y-117647978D01*
X121365510Y-117712022D01*
X121489928Y-118337514D01*
X121844241Y-118867781D01*
X121967290Y-118950000D01*
X121844241Y-119032219D01*
X121489928Y-119562486D01*
X121365510Y-120187978D01*
X121365510Y-120252022D01*
X121489928Y-120877514D01*
X121844241Y-121407781D01*
X122374508Y-121762094D01*
X123000000Y-121886512D01*
X123625492Y-121762094D01*
X124155759Y-121407781D01*
X124510072Y-120877514D01*
X124552141Y-120666015D01*
X158464641Y-120666015D01*
X158849746Y-121598041D01*
X159562208Y-122311748D01*
X160493561Y-122698479D01*
X161502015Y-122699359D01*
X162434041Y-122314254D01*
X163147748Y-121601792D01*
X163534479Y-120670439D01*
X163535359Y-119661985D01*
X163150254Y-118729959D01*
X162437792Y-118016252D01*
X161506439Y-117629521D01*
X160497985Y-117628641D01*
X159565959Y-118013746D01*
X158852252Y-118726208D01*
X158465521Y-119657561D01*
X158464641Y-120666015D01*
X124552141Y-120666015D01*
X124634490Y-120252022D01*
X124634490Y-120187978D01*
X124510072Y-119562486D01*
X124155759Y-119032219D01*
X124032710Y-118950000D01*
X124155759Y-118867781D01*
X124510072Y-118337514D01*
X124634490Y-117712022D01*
X124634490Y-117647978D01*
X124605056Y-117500000D01*
X170352560Y-117500000D01*
X170352560Y-120500000D01*
X170396838Y-120735317D01*
X170535910Y-120951441D01*
X170748110Y-121096431D01*
X171000000Y-121147440D01*
X174000000Y-121147440D01*
X174235317Y-121103162D01*
X174451441Y-120964090D01*
X174596431Y-120751890D01*
X174647440Y-120500000D01*
X174647440Y-117500000D01*
X175352560Y-117500000D01*
X175352560Y-120500000D01*
X175396838Y-120735317D01*
X175535910Y-120951441D01*
X175748110Y-121096431D01*
X176000000Y-121147440D01*
X179000000Y-121147440D01*
X179235317Y-121103162D01*
X179451441Y-120964090D01*
X179596431Y-120751890D01*
X179647440Y-120500000D01*
X179647440Y-117500000D01*
X179603162Y-117264683D01*
X179464090Y-117048559D01*
X179251890Y-116903569D01*
X179000000Y-116852560D01*
X176000000Y-116852560D01*
X175764683Y-116896838D01*
X175548559Y-117035910D01*
X175403569Y-117248110D01*
X175352560Y-117500000D01*
X174647440Y-117500000D01*
X174603162Y-117264683D01*
X174464090Y-117048559D01*
X174251890Y-116903569D01*
X174000000Y-116852560D01*
X171000000Y-116852560D01*
X170764683Y-116896838D01*
X170548559Y-117035910D01*
X170403569Y-117248110D01*
X170352560Y-117500000D01*
X124605056Y-117500000D01*
X124510072Y-117022486D01*
X124155759Y-116492219D01*
X124032710Y-116410000D01*
X124155759Y-116327781D01*
X124510072Y-115797514D01*
X124634490Y-115172022D01*
X124634490Y-115107978D01*
X124510072Y-114482486D01*
X124296987Y-114163582D01*
X124359189Y-114137817D01*
X124537817Y-113959188D01*
X124634490Y-113725799D01*
X124634490Y-112885750D01*
X124475740Y-112727000D01*
X123127000Y-112727000D01*
X123127000Y-112747000D01*
X122873000Y-112747000D01*
X122873000Y-112727000D01*
X121524260Y-112727000D01*
X121365510Y-112885750D01*
X117127000Y-112885750D01*
X117127000Y-111474201D01*
X121365510Y-111474201D01*
X121365510Y-112314250D01*
X121524260Y-112473000D01*
X122873000Y-112473000D01*
X122873000Y-111124260D01*
X123127000Y-111124260D01*
X123127000Y-112473000D01*
X124475740Y-112473000D01*
X124634490Y-112314250D01*
X124634490Y-111474201D01*
X124537817Y-111240812D01*
X124359189Y-111062183D01*
X124125800Y-110965510D01*
X123285750Y-110965510D01*
X123127000Y-111124260D01*
X122873000Y-111124260D01*
X122714250Y-110965510D01*
X121874200Y-110965510D01*
X121640811Y-111062183D01*
X121462183Y-111240812D01*
X121365510Y-111474201D01*
X117127000Y-111474201D01*
X117127000Y-108520355D01*
X121410373Y-108520355D01*
X121676932Y-109099726D01*
X122144916Y-109532987D01*
X122619646Y-109729619D01*
X122873000Y-109610265D01*
X122873000Y-108267000D01*
X123127000Y-108267000D01*
X123127000Y-109610265D01*
X123380354Y-109729619D01*
X123855084Y-109532987D01*
X124323068Y-109099726D01*
X124589627Y-108520355D01*
X124470807Y-108267000D01*
X123127000Y-108267000D01*
X122873000Y-108267000D01*
X121529193Y-108267000D01*
X121410373Y-108520355D01*
X117127000Y-108520355D01*
X117127000Y-104600510D01*
X121353070Y-104600510D01*
X121353070Y-106599490D01*
X121397348Y-106834807D01*
X121536420Y-107050931D01*
X121697649Y-107161094D01*
X121676932Y-107180274D01*
X121410373Y-107759645D01*
X121529193Y-108013000D01*
X122873000Y-108013000D01*
X122873000Y-107993000D01*
X123127000Y-107993000D01*
X123127000Y-108013000D01*
X124470807Y-108013000D01*
X124589627Y-107759645D01*
X124323068Y-107180274D01*
X124301137Y-107159970D01*
X124450931Y-107063580D01*
X124595921Y-106851380D01*
X124609329Y-106785167D01*
X140064838Y-106785167D01*
X140206883Y-107128943D01*
X140240000Y-107162118D01*
X140240000Y-108200000D01*
X140297852Y-108490839D01*
X140462599Y-108737401D01*
X143264878Y-111539680D01*
X143264838Y-111585167D01*
X143406883Y-111928943D01*
X143669673Y-112192192D01*
X144013201Y-112334838D01*
X144385167Y-112335162D01*
X144728943Y-112193117D01*
X144992192Y-111930327D01*
X145134838Y-111586799D01*
X145135162Y-111214833D01*
X144993117Y-110871057D01*
X144730327Y-110607808D01*
X144470698Y-110500000D01*
X170352560Y-110500000D01*
X170352560Y-113500000D01*
X170396838Y-113735317D01*
X170535910Y-113951441D01*
X170748110Y-114096431D01*
X171000000Y-114147440D01*
X174000000Y-114147440D01*
X174235317Y-114103162D01*
X174451441Y-113964090D01*
X174596431Y-113751890D01*
X174647440Y-113500000D01*
X174647440Y-110500000D01*
X175352560Y-110500000D01*
X175352560Y-113500000D01*
X175396838Y-113735317D01*
X175535910Y-113951441D01*
X175748110Y-114096431D01*
X176000000Y-114147440D01*
X179000000Y-114147440D01*
X179235317Y-114103162D01*
X179451441Y-113964090D01*
X179596431Y-113751890D01*
X179647440Y-113500000D01*
X179647440Y-110500000D01*
X179603162Y-110264683D01*
X179464090Y-110048559D01*
X179251890Y-109903569D01*
X179000000Y-109852560D01*
X176000000Y-109852560D01*
X175764683Y-109896838D01*
X175548559Y-110035910D01*
X175403569Y-110248110D01*
X175352560Y-110500000D01*
X174647440Y-110500000D01*
X174603162Y-110264683D01*
X174464090Y-110048559D01*
X174251890Y-109903569D01*
X174000000Y-109852560D01*
X171000000Y-109852560D01*
X170764683Y-109896838D01*
X170548559Y-110035910D01*
X170403569Y-110248110D01*
X170352560Y-110500000D01*
X144470698Y-110500000D01*
X144386799Y-110465162D01*
X144339923Y-110465121D01*
X141760000Y-107885198D01*
X141760000Y-107162463D01*
X141792192Y-107130327D01*
X141934838Y-106786799D01*
X141935162Y-106414833D01*
X141793117Y-106071057D01*
X141530327Y-105807808D01*
X141186799Y-105665162D01*
X140814833Y-105664838D01*
X140471057Y-105806883D01*
X140207808Y-106069673D01*
X140065162Y-106413201D01*
X140064838Y-106785167D01*
X124609329Y-106785167D01*
X124646930Y-106599490D01*
X124646930Y-104600510D01*
X124602652Y-104365193D01*
X124486809Y-104185167D01*
X128464838Y-104185167D01*
X128606883Y-104528943D01*
X128869673Y-104792192D01*
X129213201Y-104934838D01*
X129585167Y-104935162D01*
X129928943Y-104793117D01*
X129962118Y-104760000D01*
X132400000Y-104760000D01*
X132526003Y-104734936D01*
X132785167Y-104735162D01*
X133128943Y-104593117D01*
X133392192Y-104330327D01*
X133534838Y-103986799D01*
X133535162Y-103614833D01*
X133393117Y-103271057D01*
X133130327Y-103007808D01*
X132786799Y-102865162D01*
X132414833Y-102864838D01*
X132071057Y-103006883D01*
X131837533Y-103240000D01*
X129962463Y-103240000D01*
X129930327Y-103207808D01*
X129586799Y-103065162D01*
X129214833Y-103064838D01*
X128871057Y-103206883D01*
X128607808Y-103469673D01*
X128465162Y-103813201D01*
X128464838Y-104185167D01*
X124486809Y-104185167D01*
X124463580Y-104149069D01*
X124251380Y-104004079D01*
X123999490Y-103953070D01*
X122000510Y-103953070D01*
X121765193Y-103997348D01*
X121549069Y-104136420D01*
X121404079Y-104348620D01*
X121353070Y-104600510D01*
X117127000Y-104600510D01*
X117127000Y-101891674D01*
X120900217Y-101891674D01*
X120914573Y-101963875D01*
X121174276Y-102441740D01*
X121597081Y-102783846D01*
X122118620Y-102938110D01*
X122873000Y-102938110D01*
X122873000Y-101677000D01*
X123127000Y-101677000D01*
X123127000Y-102938110D01*
X123881380Y-102938110D01*
X124402919Y-102783846D01*
X124825724Y-102441740D01*
X125085427Y-101963875D01*
X125099783Y-101891674D01*
X124977162Y-101677000D01*
X123127000Y-101677000D01*
X122873000Y-101677000D01*
X121022838Y-101677000D01*
X120900217Y-101891674D01*
X117127000Y-101891674D01*
X117127000Y-87800000D01*
X119840000Y-87800000D01*
X119840000Y-95600000D01*
X119897852Y-95890839D01*
X120062599Y-96137401D01*
X120919908Y-96994710D01*
X120921200Y-97001207D01*
X121222104Y-97451542D01*
X121653812Y-97740000D01*
X121222104Y-98028458D01*
X120921200Y-98478793D01*
X120815536Y-99010000D01*
X120921200Y-99541207D01*
X121222104Y-99991542D01*
X121672439Y-100292446D01*
X121675306Y-100293016D01*
X121597081Y-100316154D01*
X121174276Y-100658260D01*
X120914573Y-101136125D01*
X120900217Y-101208326D01*
X121022838Y-101423000D01*
X122873000Y-101423000D01*
X122873000Y-101403000D01*
X123127000Y-101403000D01*
X123127000Y-101423000D01*
X124977162Y-101423000D01*
X125099783Y-101208326D01*
X125085427Y-101136125D01*
X124825724Y-100658260D01*
X124402919Y-100316154D01*
X124324694Y-100293016D01*
X124327561Y-100292446D01*
X124777896Y-99991542D01*
X125078800Y-99541207D01*
X125184464Y-99010000D01*
X125078800Y-98478793D01*
X124777896Y-98028458D01*
X124346188Y-97740000D01*
X124777896Y-97451542D01*
X125078800Y-97001207D01*
X125184464Y-96470000D01*
X125078800Y-95938793D01*
X124777896Y-95488458D01*
X124346188Y-95200000D01*
X124693279Y-94968081D01*
X129664878Y-99939680D01*
X129664838Y-99985167D01*
X129806883Y-100328943D01*
X130069673Y-100592192D01*
X130413201Y-100734838D01*
X130785167Y-100735162D01*
X131128943Y-100593117D01*
X131392192Y-100330327D01*
X131534838Y-99986799D01*
X131535162Y-99614833D01*
X131393117Y-99271057D01*
X131130327Y-99007808D01*
X130786799Y-98865162D01*
X130739923Y-98865121D01*
X125267401Y-93392599D01*
X125020839Y-93227852D01*
X124955958Y-93214946D01*
X124777896Y-92948458D01*
X124346188Y-92660000D01*
X124777896Y-92371542D01*
X124825498Y-92300300D01*
X132514239Y-99989041D01*
X132471057Y-100006883D01*
X132207808Y-100269673D01*
X132065162Y-100613201D01*
X132064838Y-100985167D01*
X132206883Y-101328943D01*
X132469673Y-101592192D01*
X132813201Y-101734838D01*
X132860077Y-101734879D01*
X134745331Y-103620133D01*
X134665162Y-103813201D01*
X134664838Y-104185167D01*
X134806883Y-104528943D01*
X135069673Y-104792192D01*
X135413201Y-104934838D01*
X135785167Y-104935162D01*
X136128943Y-104793117D01*
X136392192Y-104530327D01*
X136534838Y-104186799D01*
X136535162Y-103814833D01*
X136393117Y-103471057D01*
X136360000Y-103437882D01*
X136360000Y-103400000D01*
X136302148Y-103109161D01*
X136302148Y-103109160D01*
X136137401Y-102862599D01*
X135034802Y-101760000D01*
X142037537Y-101760000D01*
X142069673Y-101792192D01*
X142413201Y-101934838D01*
X142785167Y-101935162D01*
X143128943Y-101793117D01*
X143392192Y-101530327D01*
X143534838Y-101186799D01*
X143535162Y-100814833D01*
X143393117Y-100471057D01*
X143130327Y-100207808D01*
X142786799Y-100065162D01*
X142414833Y-100064838D01*
X142071057Y-100206883D01*
X142037882Y-100240000D01*
X134914802Y-100240000D01*
X125527401Y-90852599D01*
X125280839Y-90687852D01*
X124990000Y-90630000D01*
X124925926Y-90630000D01*
X124777896Y-90408458D01*
X124346188Y-90120000D01*
X124777896Y-89831542D01*
X125078800Y-89381207D01*
X125184464Y-88850000D01*
X125078800Y-88318793D01*
X124777896Y-87868458D01*
X124428148Y-87634764D01*
X124528943Y-87593117D01*
X124562118Y-87560000D01*
X133734321Y-87560000D01*
X133688960Y-87784000D01*
X133688960Y-89816000D01*
X133733238Y-90051317D01*
X133872310Y-90267441D01*
X134084510Y-90412431D01*
X134336400Y-90463440D01*
X134440000Y-90463440D01*
X134440000Y-90600000D01*
X134497852Y-90890839D01*
X134662599Y-91137401D01*
X136462599Y-92937401D01*
X136709160Y-93102148D01*
X136757414Y-93111746D01*
X137000000Y-93160000D01*
X139317673Y-93160000D01*
X139207808Y-93269673D01*
X139065162Y-93613201D01*
X139064838Y-93985167D01*
X139206883Y-94328943D01*
X139240000Y-94362118D01*
X139240000Y-96000000D01*
X139297852Y-96290839D01*
X139462599Y-96537401D01*
X140462599Y-97537401D01*
X140709161Y-97702148D01*
X141000000Y-97760000D01*
X144887739Y-97760000D01*
X144840000Y-98000000D01*
X144840000Y-102237537D01*
X144807808Y-102269673D01*
X144665162Y-102613201D01*
X144664838Y-102985167D01*
X144806883Y-103328943D01*
X145069673Y-103592192D01*
X145413201Y-103734838D01*
X145785167Y-103735162D01*
X146128943Y-103593117D01*
X146392192Y-103330327D01*
X146534838Y-102986799D01*
X146535162Y-102614833D01*
X146502213Y-102535090D01*
X146585167Y-102535162D01*
X146784392Y-102452844D01*
X156975370Y-102452844D01*
X156975370Y-104347156D01*
X157088381Y-104915299D01*
X157410208Y-105396948D01*
X157891857Y-105718775D01*
X158460000Y-105831786D01*
X159028143Y-105718775D01*
X159509792Y-105396948D01*
X159730000Y-105067383D01*
X159950208Y-105396948D01*
X160431857Y-105718775D01*
X161000000Y-105831786D01*
X161568143Y-105718775D01*
X162049792Y-105396948D01*
X162270000Y-105067383D01*
X162490208Y-105396948D01*
X162971857Y-105718775D01*
X163540000Y-105831786D01*
X164108143Y-105718775D01*
X164589792Y-105396948D01*
X164911619Y-104915299D01*
X165024630Y-104347156D01*
X165024630Y-103500000D01*
X170352560Y-103500000D01*
X170352560Y-106500000D01*
X170396838Y-106735317D01*
X170535910Y-106951441D01*
X170748110Y-107096431D01*
X171000000Y-107147440D01*
X174000000Y-107147440D01*
X174235317Y-107103162D01*
X174451441Y-106964090D01*
X174596431Y-106751890D01*
X174647440Y-106500000D01*
X174647440Y-103500000D01*
X175352560Y-103500000D01*
X175352560Y-106500000D01*
X175396838Y-106735317D01*
X175535910Y-106951441D01*
X175748110Y-107096431D01*
X176000000Y-107147440D01*
X179000000Y-107147440D01*
X179235317Y-107103162D01*
X179451441Y-106964090D01*
X179596431Y-106751890D01*
X179647440Y-106500000D01*
X179647440Y-103500000D01*
X179603162Y-103264683D01*
X179464090Y-103048559D01*
X179251890Y-102903569D01*
X179000000Y-102852560D01*
X176000000Y-102852560D01*
X175764683Y-102896838D01*
X175548559Y-103035910D01*
X175403569Y-103248110D01*
X175352560Y-103500000D01*
X174647440Y-103500000D01*
X174603162Y-103264683D01*
X174464090Y-103048559D01*
X174251890Y-102903569D01*
X174000000Y-102852560D01*
X171000000Y-102852560D01*
X170764683Y-102896838D01*
X170548559Y-103035910D01*
X170403569Y-103248110D01*
X170352560Y-103500000D01*
X165024630Y-103500000D01*
X165024630Y-102452844D01*
X164911619Y-101884701D01*
X164589792Y-101403052D01*
X164108143Y-101081225D01*
X163540000Y-100968214D01*
X162971857Y-101081225D01*
X162490208Y-101403052D01*
X162270000Y-101732617D01*
X162049792Y-101403052D01*
X161568143Y-101081225D01*
X161000000Y-100968214D01*
X160431857Y-101081225D01*
X159950208Y-101403052D01*
X159730000Y-101732617D01*
X159509792Y-101403052D01*
X159028143Y-101081225D01*
X158460000Y-100968214D01*
X157891857Y-101081225D01*
X157410208Y-101403052D01*
X157088381Y-101884701D01*
X156975370Y-102452844D01*
X146784392Y-102452844D01*
X146928943Y-102393117D01*
X147192192Y-102130327D01*
X147334838Y-101786799D01*
X147334879Y-101739923D01*
X150137401Y-98937401D01*
X150302148Y-98690840D01*
X150360000Y-98400000D01*
X150360000Y-96500000D01*
X170352560Y-96500000D01*
X170352560Y-99500000D01*
X170396838Y-99735317D01*
X170535910Y-99951441D01*
X170748110Y-100096431D01*
X171000000Y-100147440D01*
X174000000Y-100147440D01*
X174235317Y-100103162D01*
X174451441Y-99964090D01*
X174596431Y-99751890D01*
X174647440Y-99500000D01*
X174647440Y-96500000D01*
X175352560Y-96500000D01*
X175352560Y-99500000D01*
X175396838Y-99735317D01*
X175535910Y-99951441D01*
X175748110Y-100096431D01*
X176000000Y-100147440D01*
X179000000Y-100147440D01*
X179235317Y-100103162D01*
X179451441Y-99964090D01*
X179596431Y-99751890D01*
X179647440Y-99500000D01*
X179647440Y-96500000D01*
X179603162Y-96264683D01*
X179464090Y-96048559D01*
X179251890Y-95903569D01*
X179000000Y-95852560D01*
X176000000Y-95852560D01*
X175764683Y-95896838D01*
X175548559Y-96035910D01*
X175403569Y-96248110D01*
X175352560Y-96500000D01*
X174647440Y-96500000D01*
X174603162Y-96264683D01*
X174464090Y-96048559D01*
X174251890Y-95903569D01*
X174000000Y-95852560D01*
X171000000Y-95852560D01*
X170764683Y-95896838D01*
X170548559Y-96035910D01*
X170403569Y-96248110D01*
X170352560Y-96500000D01*
X150360000Y-96500000D01*
X150360000Y-89500000D01*
X170352560Y-89500000D01*
X170352560Y-92500000D01*
X170396838Y-92735317D01*
X170535910Y-92951441D01*
X170748110Y-93096431D01*
X171000000Y-93147440D01*
X174000000Y-93147440D01*
X174235317Y-93103162D01*
X174451441Y-92964090D01*
X174596431Y-92751890D01*
X174647440Y-92500000D01*
X174647440Y-89500000D01*
X175352560Y-89500000D01*
X175352560Y-92500000D01*
X175396838Y-92735317D01*
X175535910Y-92951441D01*
X175748110Y-93096431D01*
X176000000Y-93147440D01*
X179000000Y-93147440D01*
X179235317Y-93103162D01*
X179451441Y-92964090D01*
X179596431Y-92751890D01*
X179647440Y-92500000D01*
X179647440Y-89500000D01*
X179603162Y-89264683D01*
X179464090Y-89048559D01*
X179251890Y-88903569D01*
X179000000Y-88852560D01*
X176000000Y-88852560D01*
X175764683Y-88896838D01*
X175548559Y-89035910D01*
X175403569Y-89248110D01*
X175352560Y-89500000D01*
X174647440Y-89500000D01*
X174603162Y-89264683D01*
X174464090Y-89048559D01*
X174251890Y-88903569D01*
X174000000Y-88852560D01*
X171000000Y-88852560D01*
X170764683Y-88896838D01*
X170548559Y-89035910D01*
X170403569Y-89248110D01*
X170352560Y-89500000D01*
X150360000Y-89500000D01*
X150360000Y-88629699D01*
X150613201Y-88734838D01*
X150985167Y-88735162D01*
X151328943Y-88593117D01*
X151592192Y-88330327D01*
X151734838Y-87986799D01*
X151734879Y-87939923D01*
X154137401Y-85537401D01*
X154302148Y-85290839D01*
X154360000Y-85000000D01*
X154360000Y-82500000D01*
X170352560Y-82500000D01*
X170352560Y-85500000D01*
X170396838Y-85735317D01*
X170535910Y-85951441D01*
X170748110Y-86096431D01*
X171000000Y-86147440D01*
X174000000Y-86147440D01*
X174235317Y-86103162D01*
X174451441Y-85964090D01*
X174596431Y-85751890D01*
X174647440Y-85500000D01*
X174647440Y-82500000D01*
X175352560Y-82500000D01*
X175352560Y-85500000D01*
X175396838Y-85735317D01*
X175535910Y-85951441D01*
X175748110Y-86096431D01*
X176000000Y-86147440D01*
X179000000Y-86147440D01*
X179235317Y-86103162D01*
X179451441Y-85964090D01*
X179596431Y-85751890D01*
X179647440Y-85500000D01*
X179647440Y-82500000D01*
X179603162Y-82264683D01*
X179464090Y-82048559D01*
X179251890Y-81903569D01*
X179000000Y-81852560D01*
X176000000Y-81852560D01*
X175764683Y-81896838D01*
X175548559Y-82035910D01*
X175403569Y-82248110D01*
X175352560Y-82500000D01*
X174647440Y-82500000D01*
X174603162Y-82264683D01*
X174464090Y-82048559D01*
X174251890Y-81903569D01*
X174000000Y-81852560D01*
X171000000Y-81852560D01*
X170764683Y-81896838D01*
X170548559Y-82035910D01*
X170403569Y-82248110D01*
X170352560Y-82500000D01*
X154360000Y-82500000D01*
X154360000Y-81162463D01*
X154392192Y-81130327D01*
X154534838Y-80786799D01*
X154535162Y-80414833D01*
X154393117Y-80071057D01*
X154130327Y-79807808D01*
X153786799Y-79665162D01*
X153414833Y-79664838D01*
X153071057Y-79806883D01*
X152807808Y-80069673D01*
X152665162Y-80413201D01*
X152664838Y-80785167D01*
X152806883Y-81128943D01*
X152840000Y-81162118D01*
X152840000Y-84685198D01*
X150660320Y-86864878D01*
X150614833Y-86864838D01*
X150360000Y-86970133D01*
X150360000Y-82314802D01*
X151139680Y-81535122D01*
X151185167Y-81535162D01*
X151528943Y-81393117D01*
X151792192Y-81130327D01*
X151934838Y-80786799D01*
X151935162Y-80414833D01*
X151793117Y-80071057D01*
X151530327Y-79807808D01*
X151186799Y-79665162D01*
X150814833Y-79664838D01*
X150471057Y-79806883D01*
X150207808Y-80069673D01*
X150065162Y-80413201D01*
X150065121Y-80460077D01*
X149062599Y-81462599D01*
X148897852Y-81709161D01*
X148840000Y-82000000D01*
X148840000Y-87475624D01*
X148473489Y-87230729D01*
X147900000Y-87116655D01*
X147326511Y-87230729D01*
X146840330Y-87555585D01*
X146630000Y-87870366D01*
X146419670Y-87555585D01*
X145933489Y-87230729D01*
X145360000Y-87116655D01*
X144786511Y-87230729D01*
X144300330Y-87555585D01*
X144090000Y-87870366D01*
X143879670Y-87555585D01*
X143393489Y-87230729D01*
X142820000Y-87116655D01*
X142246511Y-87230729D01*
X141760330Y-87555585D01*
X141553539Y-87865069D01*
X141182036Y-87449268D01*
X140654791Y-87195291D01*
X140639026Y-87192642D01*
X140407000Y-87313783D01*
X140407000Y-88673000D01*
X140427000Y-88673000D01*
X140427000Y-88927000D01*
X140407000Y-88927000D01*
X140407000Y-90286217D01*
X140639026Y-90407358D01*
X140654791Y-90404709D01*
X141182036Y-90150732D01*
X141553539Y-89734931D01*
X141760330Y-90044415D01*
X142060000Y-90244648D01*
X142060000Y-95417572D01*
X142007808Y-95469673D01*
X141865162Y-95813201D01*
X141864838Y-96185167D01*
X141887494Y-96240000D01*
X141314802Y-96240000D01*
X140760000Y-95685198D01*
X140760000Y-94362463D01*
X140792192Y-94330327D01*
X140934838Y-93986799D01*
X140935111Y-93673206D01*
X141128943Y-93593117D01*
X141392192Y-93330327D01*
X141534838Y-92986799D01*
X141535162Y-92614833D01*
X141393117Y-92271057D01*
X141130327Y-92007808D01*
X140786799Y-91865162D01*
X140739923Y-91865121D01*
X140737401Y-91862599D01*
X140490839Y-91697852D01*
X140200000Y-91640000D01*
X137314802Y-91640000D01*
X136126421Y-90451619D01*
X136298917Y-90419162D01*
X136515041Y-90280090D01*
X136660031Y-90067890D01*
X136668400Y-90026561D01*
X136680330Y-90044415D01*
X137166511Y-90369271D01*
X137740000Y-90483345D01*
X138313489Y-90369271D01*
X138799670Y-90044415D01*
X139006461Y-89734931D01*
X139377964Y-90150732D01*
X139905209Y-90404709D01*
X139920974Y-90407358D01*
X140153000Y-90286217D01*
X140153000Y-88927000D01*
X140133000Y-88927000D01*
X140133000Y-88673000D01*
X140153000Y-88673000D01*
X140153000Y-87313783D01*
X139920974Y-87192642D01*
X139905209Y-87195291D01*
X139377964Y-87449268D01*
X139006461Y-87865069D01*
X138847554Y-87627248D01*
X140539680Y-85935122D01*
X140585167Y-85935162D01*
X140928943Y-85793117D01*
X141192192Y-85530327D01*
X141334838Y-85186799D01*
X141335162Y-84814833D01*
X141193117Y-84471057D01*
X140930327Y-84207808D01*
X140586799Y-84065162D01*
X140214833Y-84064838D01*
X139871057Y-84206883D01*
X139607808Y-84469673D01*
X139465162Y-84813201D01*
X139465121Y-84860077D01*
X138000000Y-86325198D01*
X137937401Y-86262599D01*
X137690839Y-86097852D01*
X137400000Y-86040000D01*
X124562463Y-86040000D01*
X124530327Y-86007808D01*
X124186799Y-85865162D01*
X123814833Y-85864838D01*
X123471057Y-86006883D01*
X123437882Y-86040000D01*
X121600000Y-86040000D01*
X121309161Y-86097852D01*
X121062599Y-86262599D01*
X120062599Y-87262599D01*
X119897852Y-87509161D01*
X119840000Y-87800000D01*
X117127000Y-87800000D01*
X117127000Y-77500000D01*
X120552560Y-77500000D01*
X120552560Y-80500000D01*
X120596838Y-80735317D01*
X120735910Y-80951441D01*
X120948110Y-81096431D01*
X121200000Y-81147440D01*
X124200000Y-81147440D01*
X124435317Y-81103162D01*
X124651441Y-80964090D01*
X124796431Y-80751890D01*
X124847440Y-80500000D01*
X124847440Y-77500000D01*
X124803162Y-77264683D01*
X124664090Y-77048559D01*
X124571313Y-76985167D01*
X127064838Y-76985167D01*
X127206883Y-77328943D01*
X127469673Y-77592192D01*
X127813201Y-77734838D01*
X128185167Y-77735162D01*
X128528943Y-77593117D01*
X128792192Y-77330327D01*
X128862918Y-77160000D01*
X134263772Y-77160000D01*
X134203569Y-77248110D01*
X134152560Y-77500000D01*
X134152560Y-80500000D01*
X134196838Y-80735317D01*
X134335910Y-80951441D01*
X134548110Y-81096431D01*
X134800000Y-81147440D01*
X137800000Y-81147440D01*
X138035317Y-81103162D01*
X138251441Y-80964090D01*
X138396431Y-80751890D01*
X138447440Y-80500000D01*
X138447440Y-77500000D01*
X138403162Y-77264683D01*
X138335800Y-77160000D01*
X144163772Y-77160000D01*
X144103569Y-77248110D01*
X144052560Y-77500000D01*
X144052560Y-80500000D01*
X144096838Y-80735317D01*
X144235910Y-80951441D01*
X144448110Y-81096431D01*
X144700000Y-81147440D01*
X147700000Y-81147440D01*
X147935317Y-81103162D01*
X148151441Y-80964090D01*
X148296431Y-80751890D01*
X148347440Y-80500000D01*
X148347440Y-77500000D01*
X148303162Y-77264683D01*
X148235800Y-77160000D01*
X149885198Y-77160000D01*
X150064878Y-77339680D01*
X150064838Y-77385167D01*
X150206883Y-77728943D01*
X150469673Y-77992192D01*
X150813201Y-78134838D01*
X151185167Y-78135162D01*
X151528943Y-77993117D01*
X151792192Y-77730327D01*
X151887832Y-77500000D01*
X157652560Y-77500000D01*
X157652560Y-80500000D01*
X157696838Y-80735317D01*
X157835910Y-80951441D01*
X158048110Y-81096431D01*
X158300000Y-81147440D01*
X161300000Y-81147440D01*
X161535317Y-81103162D01*
X161751441Y-80964090D01*
X161896431Y-80751890D01*
X161947440Y-80500000D01*
X161947440Y-77500000D01*
X161907127Y-77285750D01*
X170365000Y-77285750D01*
X170365000Y-78626310D01*
X170461673Y-78859699D01*
X170640302Y-79038327D01*
X170873691Y-79135000D01*
X172214250Y-79135000D01*
X172373000Y-78976250D01*
X172373000Y-77127000D01*
X172627000Y-77127000D01*
X172627000Y-78976250D01*
X172785750Y-79135000D01*
X174126309Y-79135000D01*
X174359698Y-79038327D01*
X174538327Y-78859699D01*
X174635000Y-78626310D01*
X174635000Y-77285750D01*
X175365000Y-77285750D01*
X175365000Y-78626310D01*
X175461673Y-78859699D01*
X175640302Y-79038327D01*
X175873691Y-79135000D01*
X177214250Y-79135000D01*
X177373000Y-78976250D01*
X177373000Y-77127000D01*
X177627000Y-77127000D01*
X177627000Y-78976250D01*
X177785750Y-79135000D01*
X179126309Y-79135000D01*
X179359698Y-79038327D01*
X179538327Y-78859699D01*
X179635000Y-78626310D01*
X179635000Y-77285750D01*
X179476250Y-77127000D01*
X177627000Y-77127000D01*
X177373000Y-77127000D01*
X175523750Y-77127000D01*
X175365000Y-77285750D01*
X174635000Y-77285750D01*
X174476250Y-77127000D01*
X172627000Y-77127000D01*
X172373000Y-77127000D01*
X170523750Y-77127000D01*
X170365000Y-77285750D01*
X161907127Y-77285750D01*
X161903162Y-77264683D01*
X161764090Y-77048559D01*
X161551890Y-76903569D01*
X161300000Y-76852560D01*
X158300000Y-76852560D01*
X158064683Y-76896838D01*
X157848559Y-77035910D01*
X157703569Y-77248110D01*
X157652560Y-77500000D01*
X151887832Y-77500000D01*
X151934838Y-77386799D01*
X151935162Y-77014833D01*
X151793117Y-76671057D01*
X151530327Y-76407808D01*
X151415193Y-76360000D01*
X152064860Y-76360000D01*
X152064838Y-76385167D01*
X152206883Y-76728943D01*
X152469673Y-76992192D01*
X152813201Y-77134838D01*
X153185167Y-77135162D01*
X153528943Y-76993117D01*
X153792192Y-76730327D01*
X153934838Y-76386799D01*
X153935162Y-76014833D01*
X153793117Y-75671057D01*
X153530327Y-75407808D01*
X153448163Y-75373690D01*
X170365000Y-75373690D01*
X170365000Y-76714250D01*
X170523750Y-76873000D01*
X172373000Y-76873000D01*
X172373000Y-75023750D01*
X172627000Y-75023750D01*
X172627000Y-76873000D01*
X174476250Y-76873000D01*
X174635000Y-76714250D01*
X174635000Y-75373690D01*
X175365000Y-75373690D01*
X175365000Y-76714250D01*
X175523750Y-76873000D01*
X177373000Y-76873000D01*
X177373000Y-75023750D01*
X177627000Y-75023750D01*
X177627000Y-76873000D01*
X179476250Y-76873000D01*
X179635000Y-76714250D01*
X179635000Y-75373690D01*
X179538327Y-75140301D01*
X179359698Y-74961673D01*
X179126309Y-74865000D01*
X177785750Y-74865000D01*
X177627000Y-75023750D01*
X177373000Y-75023750D01*
X177214250Y-74865000D01*
X175873691Y-74865000D01*
X175640302Y-74961673D01*
X175461673Y-75140301D01*
X175365000Y-75373690D01*
X174635000Y-75373690D01*
X174538327Y-75140301D01*
X174359698Y-74961673D01*
X174126309Y-74865000D01*
X172785750Y-74865000D01*
X172627000Y-75023750D01*
X172373000Y-75023750D01*
X172214250Y-74865000D01*
X170873691Y-74865000D01*
X170640302Y-74961673D01*
X170461673Y-75140301D01*
X170365000Y-75373690D01*
X153448163Y-75373690D01*
X153186799Y-75265162D01*
X153139923Y-75265121D01*
X152937401Y-75062599D01*
X152690839Y-74897852D01*
X152400000Y-74840000D01*
X133562463Y-74840000D01*
X133530327Y-74807808D01*
X133186799Y-74665162D01*
X132814833Y-74664838D01*
X132471057Y-74806883D01*
X132207808Y-75069673D01*
X132065162Y-75413201D01*
X132064964Y-75640000D01*
X128400000Y-75640000D01*
X128157414Y-75688254D01*
X128109160Y-75697852D01*
X127862599Y-75862599D01*
X127860320Y-75864878D01*
X127814833Y-75864838D01*
X127471057Y-76006883D01*
X127207808Y-76269673D01*
X127065162Y-76613201D01*
X127064838Y-76985167D01*
X124571313Y-76985167D01*
X124451890Y-76903569D01*
X124200000Y-76852560D01*
X121200000Y-76852560D01*
X120964683Y-76896838D01*
X120748559Y-77035910D01*
X120603569Y-77248110D01*
X120552560Y-77500000D01*
X117127000Y-77500000D01*
X117127000Y-64000000D01*
X119452560Y-64000000D01*
X119452560Y-67000000D01*
X119496838Y-67235317D01*
X119635910Y-67451441D01*
X119848110Y-67596431D01*
X120100000Y-67647440D01*
X123100000Y-67647440D01*
X123335317Y-67603162D01*
X123551441Y-67464090D01*
X123696431Y-67251890D01*
X123747440Y-67000000D01*
X123747440Y-64000000D01*
X135252560Y-64000000D01*
X135252560Y-67000000D01*
X135296838Y-67235317D01*
X135435910Y-67451441D01*
X135648110Y-67596431D01*
X135900000Y-67647440D01*
X138900000Y-67647440D01*
X139135317Y-67603162D01*
X139351441Y-67464090D01*
X139496431Y-67251890D01*
X139547440Y-67000000D01*
X139547440Y-64000000D01*
X142952560Y-64000000D01*
X142952560Y-67000000D01*
X142996838Y-67235317D01*
X143135910Y-67451441D01*
X143348110Y-67596431D01*
X143600000Y-67647440D01*
X146600000Y-67647440D01*
X146835317Y-67603162D01*
X147051441Y-67464090D01*
X147196431Y-67251890D01*
X147247440Y-67000000D01*
X147247440Y-64000000D01*
X158752560Y-64000000D01*
X158752560Y-67000000D01*
X158796838Y-67235317D01*
X158935910Y-67451441D01*
X159148110Y-67596431D01*
X159400000Y-67647440D01*
X162400000Y-67647440D01*
X162635317Y-67603162D01*
X162851441Y-67464090D01*
X162996431Y-67251890D01*
X163047440Y-67000000D01*
X163047440Y-64000000D01*
X163003162Y-63764683D01*
X162864090Y-63548559D01*
X162651890Y-63403569D01*
X162400000Y-63352560D01*
X159400000Y-63352560D01*
X159164683Y-63396838D01*
X158948559Y-63535910D01*
X158803569Y-63748110D01*
X158752560Y-64000000D01*
X147247440Y-64000000D01*
X147203162Y-63764683D01*
X147064090Y-63548559D01*
X146851890Y-63403569D01*
X146600000Y-63352560D01*
X143600000Y-63352560D01*
X143364683Y-63396838D01*
X143148559Y-63535910D01*
X143003569Y-63748110D01*
X142952560Y-64000000D01*
X139547440Y-64000000D01*
X139503162Y-63764683D01*
X139364090Y-63548559D01*
X139151890Y-63403569D01*
X138900000Y-63352560D01*
X135900000Y-63352560D01*
X135664683Y-63396838D01*
X135448559Y-63535910D01*
X135303569Y-63748110D01*
X135252560Y-64000000D01*
X123747440Y-64000000D01*
X123703162Y-63764683D01*
X123564090Y-63548559D01*
X123351890Y-63403569D01*
X123100000Y-63352560D01*
X120100000Y-63352560D01*
X119864683Y-63396838D01*
X119648559Y-63535910D01*
X119503569Y-63748110D01*
X119452560Y-64000000D01*
X117127000Y-64000000D01*
X117127000Y-62127000D01*
X184873000Y-62127000D01*
X184873000Y-127873000D01*
G36*
X146840330Y-90044415D02*
X147326511Y-90369271D01*
X147900000Y-90483345D01*
X148473489Y-90369271D01*
X148840000Y-90124376D01*
X148840000Y-98085198D01*
X146360000Y-100565198D01*
X146360000Y-98314802D01*
X146739680Y-97935122D01*
X146785167Y-97935162D01*
X147128943Y-97793117D01*
X147392192Y-97530327D01*
X147534838Y-97186799D01*
X147535162Y-96814833D01*
X147393117Y-96471057D01*
X147130327Y-96207808D01*
X146786799Y-96065162D01*
X146414833Y-96064838D01*
X146071057Y-96206883D01*
X146037882Y-96240000D01*
X143712747Y-96240000D01*
X143734838Y-96186799D01*
X143735162Y-95814833D01*
X143593117Y-95471057D01*
X143580000Y-95457917D01*
X143580000Y-93134983D01*
X143785167Y-93135162D01*
X144128943Y-92993117D01*
X144392192Y-92730327D01*
X144534838Y-92386799D01*
X144534879Y-92339923D01*
X145897401Y-90977401D01*
X146062148Y-90730839D01*
X146120000Y-90440000D01*
X146120000Y-90244648D01*
X146419670Y-90044415D01*
X146630000Y-89729634D01*
X146840330Y-90044415D01*
X146840330Y-90044415D01*
G37*
X146840330Y-90044415D02*
X147326511Y-90369271D01*
X147900000Y-90483345D01*
X148473489Y-90369271D01*
X148840000Y-90124376D01*
X148840000Y-98085198D01*
X146360000Y-100565198D01*
X146360000Y-98314802D01*
X146739680Y-97935122D01*
X146785167Y-97935162D01*
X147128943Y-97793117D01*
X147392192Y-97530327D01*
X147534838Y-97186799D01*
X147535162Y-96814833D01*
X147393117Y-96471057D01*
X147130327Y-96207808D01*
X146786799Y-96065162D01*
X146414833Y-96064838D01*
X146071057Y-96206883D01*
X146037882Y-96240000D01*
X143712747Y-96240000D01*
X143734838Y-96186799D01*
X143735162Y-95814833D01*
X143593117Y-95471057D01*
X143580000Y-95457917D01*
X143580000Y-93134983D01*
X143785167Y-93135162D01*
X144128943Y-92993117D01*
X144392192Y-92730327D01*
X144534838Y-92386799D01*
X144534879Y-92339923D01*
X145897401Y-90977401D01*
X146062148Y-90730839D01*
X146120000Y-90440000D01*
X146120000Y-90244648D01*
X146419670Y-90044415D01*
X146630000Y-89729634D01*
X146840330Y-90044415D01*
M02*
